<?xml version="1.0" encoding="utf-8"?>
<!-- Generator: Adobe Illustrator 24.0.2, SVG Export Plug-In . SVG Version: 6.00 Build 0)  -->
<svg version="1.1" id="Layer_2" xmlns="http://www.w3.org/2000/svg" xmlns:xlink="http://www.w3.org/1999/xlink" x="0px" y="0px"
	 viewBox="0 0 91.99 92.78" style="enable-background:new 0 0 91.99 92.78;" xml:space="preserve">
<style type="text/css">
	.st0{fill:#FFFFFF;}
	.st1{fill:#084C7E;}
</style>
<path class="st0" d="M45.31,21.8c16.37,0,29.68,13.32,29.68,29.68S61.67,81.16,45.31,81.16S15.62,67.85,15.62,51.48
	S28.94,21.8,45.31,21.8 M45.31,11.2c-22.25,0-40.28,18.03-40.28,40.28s18.03,40.28,40.28,40.28s40.28-18.03,40.28-40.28
	S67.55,11.2,45.31,11.2L45.31,11.2z"/>
<g>
	<path class="st0" d="M42.33,70.83c-0.27,0-0.55-0.02-0.82-0.06c-2.2-0.31-4-1.82-4.69-3.93l-9.17-27.89c-1-3.04,0.66-6.32,3.7-7.32
		c0.59-0.19,1.2-0.29,1.81-0.29c2.51,0,4.73,1.6,5.51,3.99l5.51,16.75L75.5,6.34c1.08-1.58,2.87-2.52,4.79-2.52
		c1.17,0,2.3,0.35,3.27,1.02c1.28,0.87,2.14,2.19,2.42,3.72c0.28,1.52-0.04,3.06-0.92,4.34L47.11,68.31
		C46.03,69.88,44.24,70.83,42.33,70.83z"/>
	<path class="st1" d="M80.29,4.32c1.03,0,2.07,0.3,2.99,0.93c2.41,1.65,3.03,4.95,1.38,7.36L46.7,68.02c-1,1.45-2.64,2.3-4.37,2.3
		c-0.25,0-0.5-0.02-0.75-0.05c-2-0.28-3.66-1.67-4.29-3.59l-9.17-27.89c-0.91-2.78,0.6-5.77,3.38-6.69
		c0.55-0.18,1.11-0.27,1.66-0.27c2.22,0,4.3,1.41,5.03,3.64l5.83,17.71l31.9-46.57C76.94,5.12,78.6,4.32,80.29,4.32 M80.29,3.32
		L80.29,3.32c-2.08,0-4.02,1.02-5.2,2.74l-30.76,44.9l-5.19-15.79c-0.85-2.59-3.26-4.33-5.98-4.33c-0.67,0-1.33,0.11-1.97,0.32
		c-1.6,0.53-2.9,1.64-3.65,3.14c-0.76,1.5-0.89,3.21-0.36,4.81L36.34,67c0.75,2.29,2.71,3.93,5.1,4.27
		c0.29,0.04,0.59,0.06,0.89,0.06c2.08,0,4.02-1.02,5.19-2.74l37.96-55.41c0.95-1.39,1.3-3.06,1-4.72c-0.31-1.65-1.24-3.09-2.63-4.04
		C82.79,3.7,81.56,3.32,80.29,3.32L80.29,3.32z"/>
</g>
</svg>
