<svg xmlns="http://www.w3.org/2000/svg" viewBox="0 0 52.15 27"><defs><style>.cls-1{fill:#104a7e;}</style></defs><title>eng</title><g id="Layer_2" data-name="Layer 2"><g id="Layer_1-2" data-name="Layer 1"><path class="cls-1" d="M0,0V27H52.15V0ZM15.18,10.21H11.61v2.06H15v2.08H11.61v2.37h3.57V18.8h-6V8.13h6Zm14.37,8.6H27.4l-5.79-6.92V18.8H19.15V8.13h2.14L27.08,15V8.13h2.46Zm14.32-5.71a6.94,6.94,0,0,1-1.65,4.5A4.9,4.9,0,0,1,38.41,19a5,5,0,0,1-3.91-1.49,5.66,5.66,0,0,1-1.57-4.07,5.7,5.7,0,0,1,1.54-4,5.49,5.49,0,0,1,4.19-1.55,5.38,5.38,0,0,1,3,.8,5.89,5.89,0,0,1,1.73,1.9l-2.22,1.2a3.23,3.23,0,0,0-.94-1.15,2.68,2.68,0,0,0-1.63-.51,2.89,2.89,0,0,0-2.21.86,3.66,3.66,0,0,0-.91,2.53,3.36,3.36,0,0,0,.9,2.45,2.81,2.81,0,0,0,2.16.83,2.74,2.74,0,0,0,1.86-.58A2.5,2.5,0,0,0,41.15,15H38.57V13h5.3Z"/></g></g></svg>