<svg xmlns="http://www.w3.org/2000/svg" viewBox="0 0 103.88 103.88"><defs><style>.cls-1{fill:none;stroke:#fff;stroke-linecap:round;stroke-linejoin:round;stroke-width:1.5px;}</style></defs><title>ikon-skistaver</title><g id="Layer_2" data-name="Layer 2"><g id="HVITT"><path class="cls-1" d="M.75,51.38c0,28,22.92,51.75,51.19,51.75s51.19-23.79,51.19-51.75S80.21.75,51.94.75.75,23.42.75,51.38Z"/><circle class="cls-1" cx="51.94" cy="10.65" r="2.99"/><line class="cls-1" x1="61.77" y1="37.01" x2="61.77" y2="1.69"/><line class="cls-1" x1="42.11" y1="37.01" x2="42.11" y2="1.69"/><circle class="cls-1" cx="16.35" cy="72.3" r="2.99" transform="translate(-33.96 17.86) rotate(-30)"/><line class="cls-1" x1="34.26" y1="50.61" x2="3.68" y2="68.27"/><line class="cls-1" x1="44.09" y1="67.63" x2="13.5" y2="85.29"/><circle class="cls-1" cx="51.94" cy="51.75" r="17.72" transform="translate(-18.85 70.86) rotate(-60)"/><circle class="cls-1" cx="51.94" cy="51.75" r="6.84" transform="matrix(0.5, -0.87, 0.87, 0.5, -18.85, 70.86)"/><circle class="cls-1" cx="87.54" cy="72.3" r="2.99" transform="matrix(0.5, -0.87, 0.87, 0.5, -18.85, 111.96)"/><line class="cls-1" x1="59.8" y1="67.63" x2="90.38" y2="85.29"/><line class="cls-1" x1="69.62" y1="50.61" x2="100.21" y2="68.27"/></g></g></svg>