<?xml version="1.0" encoding="utf-8"?>
<!-- Generator: Adobe Illustrator 24.0.2, SVG Export Plug-In . SVG Version: 6.00 Build 0)  -->
<svg version="1.1" id="Layer_1" xmlns="http://www.w3.org/2000/svg" xmlns:xlink="http://www.w3.org/1999/xlink" x="0px" y="0px"
	 viewBox="0 0 109.2 105.5" style="enable-background:new 0 0 109.2 105.5;" xml:space="preserve">
<style type="text/css">
	.st0{fill:none;stroke:#FFFFFF;stroke-width:1.5;stroke-linecap:round;stroke-linejoin:round;}
	.st1{clip-path:url(#SVGID_2_);}
	.st2{fill:#FFFFFF;}
</style>
<title>ikon-skifeller</title>
<g id="Layer_2_1_">
	<g id="HVITT">
		<path class="st0" d="M57.8,37.8c-16.3,3-15.9,3.4-27.3,14.8L9.2,73.9"/>
		<polyline class="st0" points="63.4,43.4 57.8,37.8 59.9,35.7 65.5,41.3 		"/>
		<path class="st0" d="M69.8,37.1l-6-6c-1.5-1.5-3.6-2.3-5.1-0.8s-0.3,4,1.2,5.5"/>
		<path class="st0" d="M65.5,41.3"/>
		<path class="st0" d="M69,49c-3,16.3-3.4,15.9-14.8,27.3L32.9,97.6"/>
		<polyline class="st0" points="63.4,43.4 69,49 71.1,46.9 65.5,41.3 		"/>
		<path class="st0" d="M69.8,37.1l6,6c1.5,1.5,2.3,3.5,0.8,5.1s-4,0.3-5.5-1.2"/>
		<path class="st0" d="M65.5,41.3"/>
		<g>
			<defs>
				<path id="SVGID_1_" d="M32.7,97.8L32.7,97.8l21.6-21.5C65.6,64.9,66,65.3,69.1,49l-5.6-5.6l-5.6-5.6c-16.3,3-15.9,3.4-27.3,14.8
					L9.2,73.9l0,0C14.2,84.2,22.5,92.6,32.7,97.8z"/>
			</defs>
			<clipPath id="SVGID_2_">
				<use xlink:href="#SVGID_1_"  style="overflow:visible;"/>
			</clipPath>
			<g class="st1">
				<path class="st2" d="M13.3,30c0,0,1.3-0.1,3.5-0.3l4-0.3l2.4-0.2c0.9-0.1,1.8,0,2.7,0h55.4c0.9,0,1.9-0.1,2.7,0l2.4,0.2l4,0.3
					l3.5,0.3l-3.5,0.3l-4,0.3L84,30.7c-0.9,0.1-1.8,0-2.7,0H25.9c-0.9,0-1.8,0-2.7,0l-2.4-0.2l-4-0.3C14.6,30.2,13.3,30,13.3,30z"/>
				<path class="st2" d="M-37.3,37c0,0,1.3-0.1,3.5-0.3l4-0.3l2.4-0.2c0.9-0.1,1.8,0,2.7,0h55.4c0.9,0,1.9-0.1,2.7,0l2.4,0.2l4,0.3
					l3.4,0.3l-3.5,0.3l-4,0.3l-2.4,0.2c-0.9,0.1-1.8,0-2.7,0h-55.4c-0.9,0-1.8,0-2.7,0l-2.4-0.2l-4-0.3C-36,37.1-37.3,37-37.3,37z"
					/>
				<path class="st2" d="M33.3,43.9c0,0,1.3-0.1,3.5-0.3l4-0.3l2.4-0.2c0.9-0.1,1.8,0,2.7,0h55.4c0.9,0,1.9-0.1,2.7,0l2.4,0.2l4,0.3
					l3.5,0.3l-3.5,0.3l-4,0.3l-2.4,0.2c-0.9,0.1-1.8,0-2.7,0H45.8c-0.9,0-1.8,0-2.7,0l-2.4-0.2l-4-0.3C34.5,44,33.3,43.9,33.3,43.9z
					"/>
				<path class="st2" d="M-18.9,50.8c0,0,1.3-0.1,3.5-0.3l4-0.3L-9,50c0.9-0.1,1.8,0,2.7,0h55.4c0.9,0,1.8-0.1,2.7,0l2.4,0.2l4,0.3
					l3.5,0.3L58.2,51l-4,0.3l-2.4,0.2c-0.9,0.1-1.8,0-2.7,0H-6.3c-0.9,0-1.8,0-2.7,0l-2.4-0.2l-4-0.3
					C-17.7,50.9-18.9,50.8-18.9,50.8z"/>
				<path class="st2" d="M19.8,57.7c0,0,1.3-0.1,3.5-0.3l4-0.3l2.4-0.2c0.9-0.1,1.8,0,2.7,0h55.4c0.9,0,1.9-0.1,2.7,0l2.4,0.2l4,0.3
					l3.5,0.3L97,57.9l-4,0.3l-2.4,0.2c-0.9,0.1-1.8,0-2.7,0H32.4c-0.9,0-1.9,0-2.7,0l-2.4-0.1l-4-0.3C21,57.8,19.8,57.7,19.8,57.7z"
					/>
				<path class="st2" d="M-33.1,64.6c0,0,1.3-0.1,3.5-0.3l4-0.3l2.4-0.2c0.9-0.1,1.8,0,2.7,0h55.4c0.9,0,1.8-0.1,2.7,0l2.4,0.2
					l4,0.3l3.5,0.3l-3.5,0.3l-4,0.3l-2.4,0.2c-0.9,0.1-1.8,0-2.7,0h-55.4c-0.9,0-1.8,0.1-2.7,0l-2.4-0.2l-4-0.3
					C-31.8,64.7-33.1,64.6-33.1,64.6z"/>
				<path class="st2" d="M19.8,71.5c0,0,1.3-0.1,3.5-0.3l4-0.3l2.4-0.2c0.9-0.1,1.8,0,2.7,0h55.4c0.9,0,1.9-0.1,2.7,0l2.4,0.2l4,0.3
					l3.5,0.3L97,71.8l-4,0.3l-2.4,0.2c-0.9,0.1-1.8,0-2.7,0H32.4c-0.9,0-1.9,0.1-2.7,0l-2.4-0.1l-4-0.3C21,71.6,19.8,71.5,19.8,71.5
					z"/>
				<path class="st2" d="M-37.3,78.4c0,0,1.3-0.1,3.5-0.3l4-0.3l2.4-0.2c0.9-0.1,1.8,0,2.7,0h55.4c0.9,0,1.9-0.1,2.7,0l2.4,0.2
					l4,0.3l3.5,0.3l-3.5,0.3l-4,0.3l-2.4,0.2c-0.9,0.1-1.8,0-2.7,0h-55.5c-0.9,0-1.8,0.1-2.7,0l-2.4-0.1l-4-0.3
					C-36,78.6-37.3,78.4-37.3,78.4z"/>
				<path class="st2" d="M12,85.3c0,0,1.3-0.1,3.5-0.3l4-0.3l2.4-0.2c0.9-0.1,1.8,0,2.7,0H80c0.9,0,1.9-0.1,2.7,0l2.4,0.2l4,0.3
					l3.5,0.3l-3.5,0.3l-4,0.3L82.7,86c-0.9,0.1-1.8,0-2.7,0H24.6c-0.9,0-1.8,0.1-2.7,0l-2.4-0.2l-4-0.3C13.3,85.5,12,85.3,12,85.3z"
					/>
				<path class="st2" d="M-36.3,92.3c0,0,1.3-0.1,3.5-0.3l4-0.3l2.4-0.2c0.9-0.1,1.8,0,2.7,0h55.4c0.9,0,1.9-0.1,2.7,0l2.4,0.2
					l4,0.3l3.5,0.3l-3.5,0.3l-4,0.3L34.4,93c-0.9,0.1-1.8,0-2.7,0h-55.4c-0.9,0-1.8,0.1-2.7,0l-2.4-0.2l-4-0.3
					C-35.1,92.4-36.3,92.3-36.3,92.3z"/>
				<path class="st2" d="M-1.8,99.2c0,0,1.3-0.1,3.5-0.3l4-0.3l2.4-0.2c0.9-0.1,1.8,0,2.7,0h55.4c0.9,0,1.9-0.1,2.7,0l2.4,0.2l4,0.3
					l3.5,0.3l-3.5,0.3l-4,0.3l-2.4,0.2c-0.9,0.1-1.8,0-2.7,0H10.8c-0.9,0-1.8,0.1-2.7,0l-2.4-0.2l-4-0.3
					C-0.6,99.3-1.8,99.2-1.8,99.2z"/>
				<path class="st2" d="M-62.7,106.1c0,0,1.3-0.1,3.5-0.3l4-0.3l2.4-0.2c0.9-0.1,1.8,0,2.7,0H5.3c0.9,0,1.8-0.1,2.7,0l2.4,0.2
					l4,0.3l3.5,0.3l-3.5,0.3l-4,0.3L8,106.8c-0.9,0.1-1.8,0-2.7,0h-55.4c-0.9,0-1.9,0.1-2.7,0l-2.4-0.2l-4-0.3
					C-61.5,106.2-62.7,106.1-62.7,106.1z"/>
			</g>
		</g>
		
			<rect x="63" y="34.4" transform="matrix(0.7071 -0.7071 0.7071 0.7071 -11.0641 57.9888)" class="st2" width="2.9" height="15.8"/>
		<circle class="st0" cx="55.2" cy="51.9" r="51.2"/>
	</g>
</g>
</svg>
