<svg xmlns="http://www.w3.org/2000/svg" viewBox="0 0 103.88 103.88"><defs><style>.cls-1{fill:none;stroke:#fff;stroke-linecap:round;stroke-linejoin:round;stroke-width:1.5px;}</style></defs><title>ikon-turski</title><g id="Layer_2" data-name="Layer 2"><g id="HVITT"><path class="cls-1" d="M81.19,9.84C71.29,51.94,8.51,28.05,3.93,69.75"/><polyline class="cls-1" points="59.23 58.2 62.17 54.79 65.1 51.39 68.03 54.79 70.97 58.2"/><polyline class="cls-1" points="56.3 73.41 59.23 70 62.17 66.6 65.1 63.2 68.03 66.6 70.97 70 73.9 73.41"/><polyline class="cls-1" points="53.37 88.62 56.3 85.22 59.23 81.81 62.17 78.41 65.1 75 68.03 78.41 70.97 81.81 73.9 85.22 76.83 88.62"/><polyline class="cls-1" points="36.58 15.77 37.71 14.53 38.83 13.3 39.96 14.53 41.08 15.77"/><polyline class="cls-1" points="35.46 22.3 36.58 21.07 37.71 19.84 38.83 18.6 39.96 19.84 41.08 21.07 42.21 22.3"/><polyline class="cls-1" points="34.33 28.84 35.46 27.61 36.58 26.37 37.71 25.14 38.83 23.9 39.96 25.14 41.08 26.37 42.21 27.61 43.33 28.84"/><path class="cls-1" d="M86.32,13.87C80.94,51.38,32.07,37.72,22.94,69.75,19.21,82.86,27.57,97,27.57,97"/><circle class="cls-1" cx="51.94" cy="51.94" r="51.19"/></g></g></svg>