<svg xmlns="http://www.w3.org/2000/svg" viewBox="0 0 71.98 71.98"><defs><style>.cls-1{fill:#fff;}.cls-2{fill:#104a7e;}</style></defs><title>ikon-uten-stålkant</title><g id="Layer_2" data-name="Layer 2"><g id="Layer_1-2" data-name="Layer 1"><circle class="cls-1" cx="35.99" cy="35.99" r="35.99"/><path class="cls-2" d="M23.33,22.2v3.94a1.5,1.5,0,0,0,.4,1.15,1.36,1.36,0,0,0,1,.34,1.43,1.43,0,0,0,1-.34,1.56,1.56,0,0,0,.38-1.15V22.2h2.3v4.16a2.86,2.86,0,0,1-.8,2.29,4.06,4.06,0,0,1-2.87.93,4,4,0,0,1-2.88-.93A2.73,2.73,0,0,1,21,26.5V22.2Z"/><path class="cls-2" d="M32.51,24.05v5.28H30.21V24.05h-.8V22.2h.8V19.89h2.31V22.2h1.42v1.86Z"/><path class="cls-2" d="M42.24,26.17H36.91a2,2,0,0,0,.43,1.22,1.55,1.55,0,0,0,1.18.45,1.89,1.89,0,0,0,.93-.21A1.39,1.39,0,0,0,40,27l2.18.22A3.19,3.19,0,0,1,40.76,29a4.24,4.24,0,0,1-2.26.53,3.7,3.7,0,0,1-2.85-1,3.84,3.84,0,0,1-1.07-2.75A4.06,4.06,0,0,1,35.67,23a4.22,4.22,0,0,1,5.57,0,4.07,4.07,0,0,1,1,2.9Zm-2.13-1.38a1.81,1.81,0,0,0-.46-.83,1.69,1.69,0,0,0-2.26.06,1.61,1.61,0,0,0-.4.77Z"/><path class="cls-2" d="M43.68,22.2H46V23a2.61,2.61,0,0,1,2.21-1A2.52,2.52,0,0,1,51,24.82v4.51H48.66V25.67a2,2,0,0,0-.38-1.42,1.21,1.21,0,0,0-.88-.32,1.25,1.25,0,0,0-1,.38A1.83,1.83,0,0,0,46,25.67v3.67h-2.3Z"/><path class="cls-2" d="M12.26,42a2.62,2.62,0,0,0-1.26-.4,1,1,0,0,0-.66.21.49.49,0,0,0-.14.32.37.37,0,0,0,.22.32,4.09,4.09,0,0,0,.69.24l.61.19a3,3,0,0,1,1.18.62,1.7,1.7,0,0,1,.56,1.36,2.59,2.59,0,0,1-.74,1.87,3.08,3.08,0,0,1-2.32.82,4.24,4.24,0,0,1-2.93-1l1-1.55a4,4,0,0,0,.78.53,2.15,2.15,0,0,0,1,.22,1.29,1.29,0,0,0,.72-.16.61.61,0,0,0,.24-.46.47.47,0,0,0-.26-.42,3,3,0,0,0-.7-.26l-.58-.18a2.85,2.85,0,0,1-1.15-.66A1.76,1.76,0,0,1,8,42.33a2.21,2.21,0,0,1,.69-1.65A3.15,3.15,0,0,1,10.8,40a4.5,4.5,0,0,1,2.37.61Z"/><path class="cls-2" d="M17.2,42.05v5.28H14.89V42.05h-.8V40.2h.8V37.89H17.2V40.2h1.42v1.86Z"/><path class="cls-2" d="M25.09,40.2h2.31v7.14H25.09v-.86A2.38,2.38,0,0,1,23,47.58a3.38,3.38,0,0,1-2.67-1.09,3.78,3.78,0,0,1-1-2.67,4.06,4.06,0,0,1,1.1-2.88,3.44,3.44,0,0,1,2.48-1,2.68,2.68,0,0,1,2.24,1Zm-2.93,2.26a1.78,1.78,0,0,0-.53,1.3A1.84,1.84,0,0,0,22.11,45a1.89,1.89,0,0,0,1.36.56,1.71,1.71,0,0,0,1.2-.5,1.89,1.89,0,0,0,0-2.66,1.93,1.93,0,0,0-1.28-.5A1.82,1.82,0,0,0,22.16,42.45Zm2.74-3.91a2.2,2.2,0,0,1-2.79,0,1.47,1.47,0,0,1,0-2.08,2.2,2.2,0,0,1,2.79,0,1.47,1.47,0,0,1,0,2.08ZM23,37.08a.55.55,0,0,0,0,.86.93.93,0,0,0,1,0,.55.55,0,0,0,0-.86.93.93,0,0,0-1,0Z"/><path class="cls-2" d="M31.55,35.67V47.34H29.25V35.67Z"/><path class="cls-2" d="M35.78,35.67v7.16l2.59-2.62h3L38,43.43l3.63,3.91H38.53l-2.75-3.07v3.07H33.47V35.67Z"/><path class="cls-2" d="M47.94,40.2h2.31v7.14H47.94v-.86a2.38,2.38,0,0,1-2.11,1.1,3.38,3.38,0,0,1-2.67-1.09,3.78,3.78,0,0,1-1-2.67,4.06,4.06,0,0,1,1.1-2.88,3.44,3.44,0,0,1,2.48-1,2.68,2.68,0,0,1,2.24,1ZM45,42.45a1.78,1.78,0,0,0-.53,1.3A1.84,1.84,0,0,0,45,45a1.89,1.89,0,0,0,1.36.56,1.71,1.71,0,0,0,1.2-.5,1.89,1.89,0,0,0,0-2.66,1.93,1.93,0,0,0-1.28-.5A1.82,1.82,0,0,0,45,42.45Z"/><path class="cls-2" d="M52,40.2h2.3V41a2.61,2.61,0,0,1,2.21-1,2.52,2.52,0,0,1,2.77,2.82v4.51H57V43.67a2,2,0,0,0-.38-1.42,1.21,1.21,0,0,0-.88-.32,1.25,1.25,0,0,0-1,.38,1.83,1.83,0,0,0-.45,1.36v3.67H52Z"/><path class="cls-2" d="M63.47,42.05v5.28H61.17V42.05h-.8V40.2h.8V37.89h2.31V40.2H64.9v1.86Z"/></g></g></svg>