<svg xmlns="http://www.w3.org/2000/svg" viewBox="0 0 53.99 53.99"><defs><style>.cls-1{fill:#104a7e;}.cls-2{fill:#fff;}</style></defs><title>ikon-nyhet-blå</title><g id="Layer_2" data-name="Layer 2"><g id="Layer_1-2" data-name="Layer 1"><path class="cls-1" d="M27,0A27,27,0,1,0,54,27,27,27,0,0,0,27,0Z"/><path class="cls-1" d="M27,2.25A24.74,24.74,0,1,1,2.25,27,24.77,24.77,0,0,1,27,2.25"/><path class="cls-2" d="M8.72,23.84h2.16v.8a2.44,2.44,0,0,1,2.07-1,2.64,2.64,0,0,1,1.92.68,2.62,2.62,0,0,1,.68,2v4.23H13.39V27.1A1.86,1.86,0,0,0,13,25.76a1.13,1.13,0,0,0-.83-.3,1.18,1.18,0,0,0-.9.36,1.71,1.71,0,0,0-.42,1.28v3.44H8.72Z"/><path class="cls-2" d="M19.61,29.68l-3.2-5.84h2.49l1.89,3.63,1.85-3.63h2.43L19.69,34H17.26Z"/><path class="cls-2" d="M26.06,19.6h2.16v5a2.73,2.73,0,0,1,.81-.69,2.51,2.51,0,0,1,1.31-.29,2.55,2.55,0,0,1,1.89.68,2.65,2.65,0,0,1,.66,2v4.25H30.73V27.1a1.8,1.8,0,0,0-.36-1.34,1.22,1.22,0,0,0-.84-.3,1.17,1.17,0,0,0-.86.33,1.9,1.9,0,0,0-.45,1.4v3.35H26.06Z"/><path class="cls-2" d="M41.11,27.56h-5a1.83,1.83,0,0,0,.41,1.14,1.45,1.45,0,0,0,1.11.42,1.77,1.77,0,0,0,.87-.2,1.31,1.31,0,0,0,.47-.56l2,.21a3,3,0,0,1-1.29,1.68,4,4,0,0,1-2.12.5,3.46,3.46,0,0,1-2.67-1,3.59,3.59,0,0,1-1-2.58,3.81,3.81,0,0,1,1-2.64,4,4,0,0,1,5.22,0,3.81,3.81,0,0,1,.94,2.72Zm-2-1.29a1.7,1.7,0,0,0-.44-.78,1.59,1.59,0,0,0-2.12.06,1.5,1.5,0,0,0-.37.72Z"/><path class="cls-2" d="M44.68,25.58v5H42.52v-5h-.75V23.84h.75V21.68h2.16v2.16H46v1.74Z"/></g></g></svg>