<svg xmlns="http://www.w3.org/2000/svg" viewBox="0 0 103.88 103.88"><defs><style>.cls-1{fill:none;stroke:#fff;stroke-linecap:round;stroke-linejoin:round;stroke-width:1.5px;}.cls-2{fill:#fff;}</style></defs><title>ikon-fjellski</title><g id="Layer_2" data-name="Layer 2"><g id="HVITT"><path class="cls-1" d="M3.24,35.77a51.37,51.37,0,0,1,97.67.84"/><path class="cls-1" d="M100.91,36.61a50.08,50.08,0,0,1,2.2,14"/><path class="cls-1" d="M.77,50.62A50,50,0,0,1,3.24,35.77"/><path class="cls-1" d="M3.24,35.77l5.22-1a8.49,8.49,0,0,1,6,1.09l3.19,1.94a8.49,8.49,0,0,0,7.51.66l1.56-.61a8.49,8.49,0,0,1,7.73.79l2.49,1.63a8.47,8.47,0,0,0,3.47,1.29l16.35,2.25a8.5,8.5,0,0,0,4.32-.53l2.55-1a8.5,8.5,0,0,1,5.84-.17l.3.1a8.49,8.49,0,0,0,6.85-.66L79.36,40a8.49,8.49,0,0,1,6.88-.65,8.5,8.5,0,0,0,5.14.09l9.53-2.83"/><path class="cls-1" d="M103.11,50.62c0,.26,0,.51,0,.77a50.09,50.09,0,0,1-2.37,15.26"/><path class="cls-1" d="M.77,50.62c0,.26,0,.51,0,.77a50.43,50.43,0,0,0,.64,8"/><path class="cls-1" d="M100.76,66.64c-6.54,20.51-25.93,36.5-48.82,36.5-21.56,0-40-14.31-47.53-33"/><path class="cls-1" d="M1.39,59.35a49.81,49.81,0,0,0,3,10.83"/><line class="cls-1" x1="0.77" y1="50.62" x2="103.11" y2="50.62"/><path class="cls-2" d="M59.68,54.64a.87.87,0,0,1-1-.49c-.08-.33.23-.65.69-.7a.87.87,0,0,1,1,.49C60.46,54.27,60.15,54.58,59.68,54.64Z"/><path class="cls-2" d="M60.55,58.17a1.09,1.09,0,0,1-1.24-.62c-.1-.41.29-.81.87-.88a1.09,1.09,0,0,1,1.24.62C61.52,57.7,61.13,58.1,60.55,58.17Z"/><path class="cls-2" d="M61.85,63.46a1.31,1.31,0,0,1-1.48-.74c-.12-.5.34-1,1-1.06a1.31,1.31,0,0,1,1.48.74C63,62.9,62.55,63.38,61.85,63.46Z"/><path class="cls-2" d="M63.49,70.11a1.53,1.53,0,0,1-1.73-.87c-.14-.58.4-1.14,1.22-1.24a1.53,1.53,0,0,1,1.73.87C64.85,69.46,64.3,70,63.49,70.11Z"/><path class="cls-2" d="M65.36,77.72a1.75,1.75,0,0,1-2-1c-.16-.66.46-1.3,1.39-1.42a1.75,1.75,0,0,1,2,1C66.92,77,66.29,77.6,65.36,77.72Z"/><path class="cls-2" d="M67.37,85.88a2,2,0,0,1-2.23-1.12c-.18-.75.52-1.46,1.57-1.59a2,2,0,0,1,2.23,1.12C69.12,85,68.42,85.75,67.37,85.88Z"/><path class="cls-2" d="M69.42,94.2A2.19,2.19,0,0,1,66.93,93c-.2-.83.57-1.63,1.74-1.77a2.19,2.19,0,0,1,2.48,1.24C71.36,93.26,70.58,94.05,69.42,94.2Z"/><path class="cls-2" d="M44.2,54.64a.87.87,0,0,0,1-.49c.08-.33-.23-.65-.69-.7a.87.87,0,0,0-1,.49C43.43,54.27,43.74,54.58,44.2,54.64Z"/><path class="cls-2" d="M43.33,58.17a1.09,1.09,0,0,0,1.24-.62c.1-.41-.29-.81-.87-.88a1.09,1.09,0,0,0-1.24.62C42.36,57.7,42.75,58.1,43.33,58.17Z"/><path class="cls-2" d="M42,63.46a1.31,1.31,0,0,0,1.48-.74c.12-.5-.34-1-1-1.06A1.31,1.31,0,0,0,41,62.4C40.87,62.9,41.33,63.38,42,63.46Z"/><path class="cls-2" d="M40.39,70.11a1.53,1.53,0,0,0,1.73-.87c.14-.58-.4-1.14-1.22-1.24a1.53,1.53,0,0,0-1.73.87C39,69.46,39.58,70,40.39,70.11Z"/><path class="cls-2" d="M38.52,77.72a1.75,1.75,0,0,0,2-1c.16-.66-.46-1.3-1.39-1.42a1.75,1.75,0,0,0-2,1C37,77,37.59,77.6,38.52,77.72Z"/><path class="cls-2" d="M36.51,85.88a2,2,0,0,0,2.23-1.12c.18-.75-.52-1.46-1.57-1.59a2,2,0,0,0-2.23,1.12C34.76,85,35.47,85.75,36.51,85.88Z"/><path class="cls-2" d="M34.47,94.2A2.19,2.19,0,0,0,36.95,93c.2-.83-.57-1.63-1.74-1.77a2.19,2.19,0,0,0-2.48,1.24C32.52,93.26,33.3,94.05,34.47,94.2Z"/><line class="cls-1" x1="53.5" y1="50.62" x2="61.22" y2="102.14"/><line class="cls-1" x1="50.39" y1="50.62" x2="42.67" y2="102.14"/></g></g></svg>