<svg xmlns="http://www.w3.org/2000/svg" viewBox="0 0 103.88 103.88"><defs><style>.cls-1{fill:none;stroke:#fff;stroke-linecap:round;stroke-linejoin:round;stroke-width:1.5px;}</style></defs><title>ikon-toppturski</title><g id="Layer_2" data-name="Layer 2"><g id="HVITT"><polyline class="cls-1" points="46.44 42.12 56.14 26.86 59.32 26.86 93.6 80.79"/><line class="cls-1" x1="46.44" y1="42.12" x2="53.55" y2="53.32"/><line class="cls-1" x1="46.44" y1="42.12" x2="46.44" y2="42.12"/><polyline class="cls-1" points="46.44 42.12 41.69 34.64 35.16 44.9 29.27 44.9 8.32 77.87"/><path class="cls-1" d="M93.6,80.79c-9.29,12.84-24.48,22.34-41.66,22.34-18.45,0-34.62-10.78-43.63-25.26"/><path class="cls-1" d="M93.6,80.79a50,50,0,0,0,9.54-29.41c0-28-22.92-50.63-51.19-50.63S.75,23.42.75,51.38A50,50,0,0,0,8.32,77.87"/><path class="cls-1" d="M53.55,30.93c0,14.7,13.23,18.19,13.23,27.64,0,14.12-21.87,11.35-30.87,21.6-2.33,2.66-3.8,6.19-3.8,11.12,0,7.81,2.63,8.63,2.63,8.63"/></g></g></svg>