<svg xmlns="http://www.w3.org/2000/svg" viewBox="0 0 71.98 71.98"><defs><style>.cls-1{fill:#fff;}</style></defs><title>ikon-nyhet</title><g id="Layer_2" data-name="Layer 2"><g id="Layer_1-2" data-name="Layer 1"><path class="cls-1" d="M11.63,31.79h2.88v1.06a3.26,3.26,0,0,1,2.76-1.3,3.52,3.52,0,0,1,2.56.9,3.5,3.5,0,0,1,.9,2.62v5.64H17.85V36.13a2.47,2.47,0,0,0-.48-1.78,1.51,1.51,0,0,0-1.1-.4,1.57,1.57,0,0,0-1.2.48,2.28,2.28,0,0,0-.56,1.7v4.58H11.63Z"/><path class="cls-1" d="M26.15,39.57l-4.26-7.78h3.32l2.52,4.84,2.46-4.84h3.24L26.25,45.3H23Z"/><path class="cls-1" d="M34.75,26.13h2.88v6.72a3.63,3.63,0,0,1,1.08-.92,3.35,3.35,0,0,1,1.74-.38,3.39,3.39,0,0,1,2.52.9,3.53,3.53,0,0,1,.88,2.6v5.66H41V36.13a2.4,2.4,0,0,0-.48-1.78,1.63,1.63,0,0,0-1.12-.4,1.56,1.56,0,0,0-1.14.44,2.54,2.54,0,0,0-.6,1.86v4.46H34.75Z"/><path class="cls-1" d="M54.81,36.75H48.15a2.44,2.44,0,0,0,.54,1.52,1.93,1.93,0,0,0,1.48.56,2.36,2.36,0,0,0,1.16-.26,1.74,1.74,0,0,0,.62-.74l2.72.28A4,4,0,0,1,53,40.35a5.3,5.3,0,0,1-2.82.66,4.62,4.62,0,0,1-3.56-1.28,4.79,4.79,0,0,1-1.34-3.44,5.08,5.08,0,0,1,1.36-3.52,5.28,5.28,0,0,1,7,.06,5.09,5.09,0,0,1,1.26,3.62ZM52.15,35a2.27,2.27,0,0,0-.58-1,2.11,2.11,0,0,0-2.82.08,2,2,0,0,0-.5,1Z"/><path class="cls-1" d="M59.57,34.11v6.6H56.69v-6.6h-1V31.79h1V28.91h2.88v2.88h1.78v2.32Z"/><path class="cls-1" d="M36,3A33,33,0,1,1,3,36,33,33,0,0,1,36,3m0-3A36,36,0,1,0,72,36,36,36,0,0,0,36,0Z"/></g></g></svg>