<svg xmlns="http://www.w3.org/2000/svg" viewBox="0 0 271 53.19"><defs><style>.cls-1{fill:#104a7e;}</style></defs><title>logo</title><g id="Layer_2" data-name="Layer 2"><g id="Layer_1-2" data-name="Layer 1"><path class="cls-1" d="M18.35,8.51C17.83,7,16.78,7,16.65,7h-.06c-.12,0-1.21,0-1.7,1.52S.4,51.69.4,51.69c-.6,1.49-.57,1.49.44,1.49H2c.39,0,.52-.3,1-1.08,0,0,5.34-11.48,13.63-11.48S30.24,52.1,30.24,52.1c.55.89.48,1.08,1,1.08h1.14c.91,0,.93-.11.44-1.48Z" transform="translate(0)"/><path class="cls-1" d="M12.12,13.4c.05,0,.09,0,.1,0l.62-1.86c0-.06,0-.09,0-.14a5.35,5.35,0,0,1-1.75-3.95A5.47,5.47,0,0,1,22,7.41a5.35,5.35,0,0,1-1.64,3.85s0,.1,0,.1L21,13.29s0,.07.09,0a7.36,7.36,0,0,0,3-5.9,7.5,7.5,0,0,0-15,0A7.37,7.37,0,0,0,12.12,13.4Z" transform="translate(0)"/><path class="cls-1" d="M262.06,30.55H234.4a1.33,1.33,0,0,1-1.34-1.32v-.73a1.34,1.34,0,0,1,1.34-1.33h28.88a1.09,1.09,0,0,0,1.09-1.08V23.31a1.09,1.09,0,0,0-1.09-1.09H233.45a6.32,6.32,0,0,0-6.36,6.27v.73a6.31,6.31,0,0,0,6.36,6.27H261.1a1.34,1.34,0,0,1,1.34,1.33v.73a1.33,1.33,0,0,1-1.34,1.32H227.94a1.09,1.09,0,0,0-1.1,1.08v2.79a1.09,1.09,0,0,0,1.1,1.08h34.13a6.32,6.32,0,0,0,6.35-6.28v-.73A6.32,6.32,0,0,0,262.06,30.55Z" transform="translate(0)"/><path class="cls-1" d="M172.39,22.24H142a1.08,1.08,0,0,0-1.09,1.08V42.71A1.09,1.09,0,0,0,142,43.79h2.82a1.09,1.09,0,0,0,1.1-1.08s0-12.58,0-15.15a.35.35,0,0,1,.36-.36h26.12c1.87,0,2.42.94,2.42,2.59V42.71a1.08,1.08,0,0,0,1.09,1.08h3A1.09,1.09,0,0,0,180,42.71V29.78C180,25.17,177.47,22.24,172.39,22.24Z" transform="translate(0)"/><path class="cls-1" d="M131.66,30.55H104a1.33,1.33,0,0,1-1.34-1.32v-.73A1.34,1.34,0,0,1,104,27.17h29.12a1.09,1.09,0,0,0,1.09-1.08V23.31a1.09,1.09,0,0,0-1.09-1.09H103a6.32,6.32,0,0,0-6.36,6.27v.73A6.32,6.32,0,0,0,103,35.5H130.7A1.33,1.33,0,0,1,132,36.82v.73a1.33,1.33,0,0,1-1.34,1.32H97.53A1.09,1.09,0,0,0,96.44,40v2.79a1.09,1.09,0,0,0,1.09,1.08h34.13A6.32,6.32,0,0,0,138,37.55v-.73A6.32,6.32,0,0,0,131.66,30.55Z" transform="translate(0)"/><path class="cls-1" d="M71.55,19.67h5.73a3.28,3.28,0,0,0,3.3-3.26V14.89a3.29,3.29,0,0,0-3.3-3.26H71.55a3.29,3.29,0,0,0-3.3,3.26v1.53A3.29,3.29,0,0,0,71.55,19.67ZM71,15.5c0-.27.06-1.16.91-1.16h4.9a1.06,1.06,0,0,1,1,1.16v.13a1.05,1.05,0,0,1-1,1.15H71.9c-.85,0-.91-.88-.91-1.15Z" transform="translate(0)"/><path class="cls-1" d="M86.64,22.22H57.46a1.09,1.09,0,0,0-1.09,1.09v2.77a1.09,1.09,0,0,0,1.09,1.08H86a1.34,1.34,0,0,1,1.34,1.32v1.6a.34.34,0,0,1-.38.36H59a6.33,6.33,0,0,0-6.36,6.27v.74A6.32,6.32,0,0,0,59,43.75H91.89A1.09,1.09,0,0,0,93,42.66V28.49A6.32,6.32,0,0,0,86.64,22.22ZM87,38.82H59.66a1.33,1.33,0,0,1-1.34-1.33v-.88a1.34,1.34,0,0,1,1.34-1.33H87a.39.39,0,0,1,.39.37c0,.71,0,2.06,0,2.79A.37.37,0,0,1,87,38.82Z" transform="translate(0)"/><path class="cls-1" d="M222.07,38.81h-31.3a1.33,1.33,0,0,1-1.34-1.33s0-1,0-1.61a.36.36,0,0,1,.35-.35l28.52,0a4.21,4.21,0,0,0,3.09-1.16,4.33,4.33,0,0,0,.82-2.4h0V29.24h0V28.5a6.19,6.19,0,0,0-6.35-6.28H190.14a6.32,6.32,0,0,0-6.36,6.27v9a6.32,6.32,0,0,0,6.36,6.27h31.93a1.09,1.09,0,0,0,1.09-1.08V39.89A1.09,1.09,0,0,0,222.07,38.81ZM189.4,28.35A1.34,1.34,0,0,1,190.75,27h24.73a1.34,1.34,0,0,1,1.35,1.33V30.2a.37.37,0,0,1-.37.36H189.77a.37.37,0,0,1-.37-.36Z" transform="translate(0)"/><polygon class="cls-1" points="266.37 24.71 266.86 24.71 266.86 22.66 267.62 22.66 267.62 22.24 265.6 22.24 265.6 22.66 266.37 22.66 266.37 24.71"/><polygon class="cls-1" points="270.22 22.24 269.59 23.93 268.97 22.24 268.18 22.24 268.18 24.71 268.66 24.71 268.66 22.77 268.68 22.77 269.4 24.71 269.78 24.71 270.5 22.77 270.51 22.77 270.51 24.71 271 24.71 271 22.24 270.22 22.24"/></g></g></svg>